<svg id="icon" width="24" height="24" viewBox="0 0 24 24" fill="currentColor" xmlns="http://www.w3.org/2000/svg">
<path d="M2.62504 12.375C2.32667 12.375 2.04052 12.2565 1.82954 12.0455C1.61857 11.8345 1.50004 11.5484 1.50004 11.25C1.50004 10.9516 1.61857 10.6655 1.82954 10.4545C2.04052 10.2435 2.32667 10.125 2.62504 10.125H5.25004C5.3495 10.125 5.44488 10.0855 5.5152 10.0152C5.58553 9.94484 5.62504 9.84946 5.62504 9.75C5.62504 9.65055 5.58553 9.55517 5.5152 9.48484C5.44488 9.41451 5.3495 9.375 5.25004 9.375H3.75004C3.08202 9.37399 2.43951 9.11832 1.95342 8.66009C1.46733 8.20187 1.17423 7.57555 1.13384 6.90875C1.09344 6.24195 1.30878 5.58483 1.736 5.07127C2.16321 4.55771 2.77015 4.22635 3.43316 4.14469C3.5076 3.92291 3.64933 3.72985 3.83862 3.59238C4.02791 3.45491 4.25535 3.37987 4.48928 3.3777C4.72321 3.37554 4.952 3.44635 5.1438 3.58029C5.33561 3.71423 5.48088 3.90464 5.55941 4.125H6.00004C6.29841 4.125 6.58456 4.24353 6.79553 4.45451C7.00651 4.66549 7.12504 4.95164 7.12504 5.25C7.12504 5.54837 7.00651 5.83452 6.79553 6.0455C6.58456 6.25648 6.29841 6.375 6.00004 6.375H3.75004C3.65058 6.375 3.5552 6.41451 3.48487 6.48484C3.41455 6.55517 3.37504 6.65055 3.37504 6.75C3.37504 6.84946 3.41455 6.94484 3.48487 7.01517C3.5552 7.0855 3.65058 7.125 3.75004 7.125H5.25004C5.91806 7.12602 6.56057 7.38169 7.04666 7.83991C7.53274 8.29814 7.82584 8.92446 7.86624 9.59126C7.90664 10.2581 7.6913 10.9152 7.26408 11.4287C6.83687 11.9423 6.22993 12.2737 5.56691 12.3553C5.49248 12.5771 5.35075 12.7702 5.16146 12.9076C4.97217 13.0451 4.74473 13.1201 4.5108 13.1223C4.27687 13.1245 4.04808 13.0537 3.85628 12.9197C3.66447 12.7858 3.5192 12.5954 3.44066 12.375H2.62504ZM22.125 5.25V18C22.125 18.4973 21.9275 18.9742 21.5759 19.3258C21.2242 19.6775 20.7473 19.875 20.25 19.875H3.75004C3.25276 19.875 2.77584 19.6775 2.42421 19.3258C2.07258 18.9742 1.87504 18.4973 1.87504 18V15.375C1.87504 15.0766 1.99357 14.7905 2.20454 14.5795C2.41552 14.3685 2.70167 14.25 3.00004 14.25C3.29841 14.25 3.58456 14.3685 3.79553 14.5795C4.00651 14.7905 4.12504 15.0766 4.12504 15.375V17.625H14.625V15.375H8.25004C7.95167 15.375 7.66552 15.2565 7.45454 15.0455C7.24357 14.8345 7.12504 14.5484 7.12504 14.25C7.12504 13.9516 7.24357 13.6655 7.45454 13.4545C7.66552 13.2435 7.95167 13.125 8.25004 13.125H14.625V10.875H10.5C10.2017 10.875 9.91552 10.7565 9.70454 10.5455C9.49357 10.3345 9.37504 10.0484 9.37504 9.75C9.37504 9.45164 9.49357 9.16549 9.70454 8.95451C9.91552 8.74353 10.2017 8.625 10.5 8.625H19.875V6.375H9.75004C9.45167 6.375 9.16552 6.25648 8.95454 6.0455C8.74357 5.83452 8.62504 5.54837 8.62504 5.25C8.62504 4.95164 8.74357 4.66549 8.95454 4.45451C9.16552 4.24353 9.45167 4.125 9.75004 4.125H21C21.2984 4.125 21.5846 4.24353 21.7955 4.45451C22.0065 4.66549 22.125 4.95164 22.125 5.25ZM16.875 13.125H19.875V10.875H16.875V13.125ZM19.875 17.625V15.375H16.875V17.625H19.875Z"/>
</svg>
