<svg id="icon" width="24" height="24" viewBox="0 0 24 24" fill="currentColor" xmlns="http://www.w3.org/2000/svg">
<path d="M22.1569 17.5397C22.6678 16.4286 22.9129 15.2137 22.8727 13.9914C22.8326 12.7692 22.5083 11.573 21.9256 10.4978C21.343 9.42259 20.5179 8.49787 19.5158 7.7969C18.5136 7.09594 17.362 6.63799 16.1522 6.45937C15.2702 4.57696 13.6796 3.11967 11.7274 2.40532C9.77516 1.69096 7.61967 1.77749 5.731 2.64604C3.84232 3.51458 2.37368 5.09468 1.64537 7.04173C0.917054 8.98879 0.988148 11.1448 1.84315 13.0397L1.2019 15.2203C1.10687 15.5435 1.10065 15.8862 1.18388 16.2126C1.26712 16.539 1.43673 16.8369 1.67491 17.0751C1.91308 17.3133 2.21102 17.4829 2.5374 17.5661C2.86378 17.6494 3.20656 17.6431 3.52971 17.5481L5.71034 16.9069C6.38806 17.2175 7.10649 17.4303 7.84409 17.5387C8.7172 19.4361 10.3078 20.9092 12.2664 21.6345C14.225 22.3598 16.3914 22.2779 18.2897 21.4069L20.4703 22.0481C20.7935 22.1431 21.1363 22.1494 21.4626 22.0661C21.789 21.9829 22.087 21.8133 22.3251 21.5751C22.5633 21.3369 22.7329 21.039 22.8162 20.7126C22.8994 20.3862 22.8932 20.0435 22.7981 19.7203L22.1569 17.5397ZM5.81252 14.5781C5.70492 14.578 5.59787 14.5935 5.49471 14.6241L3.55221 15.195L4.12502 13.2516C4.20717 12.9697 4.17588 12.6669 4.03784 12.4078C3.4 11.2191 3.21061 9.84076 3.5042 8.52408C3.79778 7.20739 4.55478 6.04007 5.63719 5.23493C6.71959 4.42979 8.0553 4.04046 9.40079 4.13793C10.7463 4.2354 12.0119 4.81317 12.967 5.76591C13.9221 6.71864 14.5029 7.98288 14.6037 9.32813C14.7044 10.6734 14.3184 12.01 13.5159 13.0944C12.7134 14.1788 11.5479 14.9386 10.2319 15.2354C8.91595 15.5322 7.53715 15.3462 6.3469 14.7112C6.18255 14.6233 5.99893 14.5775 5.81252 14.5781ZM19.9585 16.9031C19.8204 17.1622 19.7891 17.465 19.8713 17.7469L20.4422 19.6903L18.5025 19.125C18.2189 19.0413 17.9138 19.0726 17.6531 19.2122C16.4437 19.8588 15.0397 20.0413 13.7051 19.7254C12.3706 19.4094 11.1974 18.6168 10.4063 17.4966C12.3608 17.1435 14.1096 16.0643 15.3015 14.4755C16.4935 12.8867 17.0405 10.9059 16.8328 8.93062C17.6024 9.19572 18.3053 9.62469 18.8929 10.1879C19.4806 10.7511 19.939 11.4352 20.2365 12.1928C20.5341 12.9504 20.6636 13.7636 20.6163 14.5762C20.5689 15.3888 20.3457 16.1814 19.9622 16.8994L19.9585 16.9031Z" />
</svg>
